<?xml version="1.0" encoding="utf-8"?>
<!-- Generator: Adobe Illustrator 15.1.0, SVG Export Plug-In . SVG Version: 6.00 Build 0)  -->
<!DOCTYPE svg PUBLIC "-//W3C//DTD SVG 1.1//EN" "http://www.w3.org/Graphics/SVG/1.1/DTD/svg11.dtd">
<svg version="1.1" id="레이어_1" xmlns="http://www.w3.org/2000/svg" xmlns:xlink="http://www.w3.org/1999/xlink" x="0px"
	 y="0px" width="335.5px" height="43.167px" viewBox="464.5 0 335.5 43.167" enable-background="new 464.5 0 335.5 43.167"
	 xml:space="preserve">
<path d="M481.653,16.925v-2.418c0-2.67-1.111-3.779-4.293-3.779c-3.183,0-4.244,1.108-4.244,3.779v15.418
	c0,2.67,1.062,3.779,4.193,3.779s4.344-1.965,4.344-5.039v-3.578h-5.051v-4.383h11.063v16.93h-5.202v-2.418
	c-0.96,1.36-2.779,2.972-7.022,2.972c-5.354,0-8.385-2.216-8.385-9.372V16.018c0-7.155,4.142-9.674,10.354-9.674
	c6.214,0,10.255,2.771,10.255,8.313v2.318h-6.062L481.653,16.925z"/>
<path d="M511.608,6.906v4.535h-11.921v7.76h10.759v4.484h-10.759v9.372h11.921v4.535h-17.982V6.906H511.608z"/>
<path d="M538.691,6.906v30.686h-7.425l-8.083-23.43v23.43h-6.011V6.906h7.375l8.133,23.278V6.906H538.691z"/>
<path d="M563.646,6.906v4.535h-7.577v26.151h-6.011V11.441h-7.527V6.906H563.646z"/>
<path d="M573.498,33.057h11.871v4.535h-17.932V6.906h6.061V33.057z"/>
<path d="M607.14,6.906v4.535h-11.922v7.76h10.76v4.484h-10.76v9.372h11.922v4.535h-17.984V6.906H607.14z"/>
<path d="M649.513,6.906v30.686h-6.062V14.011l-5.102,23.581h-4.749l-5.152-23.682v23.682h-6.011V6.906h8.486l5.051,23.43
	l5.052-23.43H649.513z"/>
<path d="M669.825,14.909c0-3.174-1.11-4.081-4.243-4.081c-3.132,0-4.243,0.907-4.243,4.081v14.713c0,3.124,1.111,4.082,4.243,4.082
	c3.133,0,4.243-0.907,4.243-4.082V14.909z M675.837,16.371v11.791c0,7.508-3.638,9.977-10.255,9.977s-10.255-2.52-10.255-9.977
	V16.32c0-7.508,3.638-9.977,10.255-9.977s10.255,2.52,10.255,9.977"/>
<path d="M703.218,6.906v30.686h-7.425l-8.134-23.43v23.43h-6.012V6.906h7.426l8.082,23.278V6.906H703.218z"/>
<path d="M728.021,14.057v1.814h-6.011v-1.512c0-2.519-0.404-3.678-3.334-3.678c-2.931,0-3.284,1.159-3.284,3.275
	c0,1.713,0.405,2.519,2.072,3.627l5.858,3.779c3.233,2.066,5.103,3.275,5.103,8.717s-3.536,8.063-9.446,8.063
	c-7.021,0-9.901-2.52-9.901-8.063v-2.57h6.063v2.268c0,3.275,1.01,4.031,3.839,4.031s3.385-1.26,3.385-3.477
	s-0.354-3.023-2.425-4.434l-5.708-3.88c-3.536-2.418-4.85-3.527-4.85-8.062c0-3.83,2.223-7.558,9.396-7.558s9.396,3.074,9.396,7.709
	"/>
<path d="M752.161,6.906v4.535h-7.576v26.151h-6.012V11.441h-7.526V6.906H752.161z"/>
<path d="M773.936,6.906v4.535h-11.921v7.76h10.76v4.484h-10.76v9.372h11.921v4.535h-17.983V6.906H773.936z"/>
<path d="M789.646,19.453c3.283,0,3.839-1.411,3.839-4.031c0-2.62-0.455-4.031-3.738-4.031h-4.243v8.062H789.646L789.646,19.453z
	 M798.839,27.212v6.601c0,1.612,0.403,2.973,1.161,3.779h-6.213c-0.505-0.807-0.96-2.167-0.96-3.729v-6.651
	c0-2.519-0.96-3.225-3.132-3.225h-4.192v13.604h-6.012V6.906h11.013c8.031,0,9.093,4.333,9.093,8.565c0,3.427-1.818,5.896-6.163,6.5
	c3.587,0.302,5.456,2.268,5.456,5.24"/>
</svg>
